<svg width="606" height="222" viewBox="0 0 606 222" fill="none" xmlns="http://www.w3.org/2000/svg">
<rect x="10" y="9.99561" width="586" height="202.004" fill="white" stroke="black" stroke-width="20"/>
<path d="M126.682 114.409C130.989 119.849 134.162 124.383 136.202 128.009C138.242 131.523 139.262 135.659 139.262 140.419C139.262 142.346 139.092 144.443 138.752 146.709C136.939 156.796 132.236 163.709 124.642 167.449C117.049 171.076 107.302 172.889 95.4022 172.889C91.8889 172.889 80.8955 172.209 62.4222 170.849C62.0822 162.349 61.9122 148.749 61.9122 130.049C61.9122 109.763 61.9689 91.4594 62.0822 75.1395V53.0394C72.0555 50.2061 81.6322 48.7894 90.8122 48.7894C103.619 48.7894 114.102 51.6228 122.262 57.2895C130.536 62.8428 134.672 72.0228 134.672 84.8295C134.672 93.1028 131.782 102.113 126.002 111.859V111.689C125.776 112.143 125.662 112.483 125.662 112.709C125.662 113.049 126.002 113.559 126.682 114.239V114.409ZM107.812 84.8295C106.112 81.6561 103.959 79.7294 101.352 79.0494C99.5389 78.8228 98.1222 78.7094 97.1022 78.7094C94.1555 78.4828 91.9455 78.1995 90.4722 77.8594C90.8122 79.7861 90.9822 82.7328 90.9822 86.6995V92.8194C90.9822 95.6528 91.0389 97.8628 91.1522 99.4494H96.0822C101.069 99.4494 104.469 97.7494 106.282 94.3494C107.756 91.6295 108.492 89.4195 108.492 87.7194C108.492 86.6995 108.266 85.7361 107.812 84.8295ZM107.812 137.019C107.812 135.093 107.472 132.996 106.792 130.729V130.899C106.226 129.653 105.432 128.519 104.412 127.499C103.392 126.479 102.372 125.856 101.352 125.629C99.5389 125.176 96.8755 124.836 93.3622 124.609C93.0222 124.609 92.6255 124.666 92.1722 124.779C91.8322 124.779 91.4355 124.723 90.9822 124.609C89.8489 129.369 89.2822 133.506 89.2822 137.019C89.2822 141.099 89.9055 144.273 91.1522 146.539C95.2322 146.653 98.4055 146.539 100.672 146.199C103.052 145.746 105.036 144.556 106.622 142.629C107.416 141.496 107.812 139.626 107.812 137.019Z" fill="black"/>
<path d="M225.018 158.12C225.128 159.44 225.183 161.365 225.183 163.895C225.183 166.205 224.963 167.855 224.523 168.845C224.193 169.725 223.643 170.275 222.873 170.495C222.103 170.715 220.783 170.825 218.913 170.825H217.758L215.118 170.66L210.828 170.825C204.008 171.045 193.943 171.155 180.633 171.155C167.983 171.155 157.918 171.1 150.438 170.99V167.195C151.208 149.045 151.593 130.785 151.593 112.415C151.593 107.025 151.483 97.73 151.263 84.53V80.57V74.465C151.153 72.595 151.098 69.24 151.098 64.4L150.933 53.675C152.473 53.125 154.618 52.685 157.368 52.355C160.118 51.915 162.868 51.695 165.618 51.695C168.698 51.695 171.778 51.915 174.858 52.355C177.938 52.795 180.413 53.4 182.283 54.17C182.063 62.09 181.953 68.415 181.953 73.145C181.953 79.745 182.063 89.645 182.283 102.845C182.393 109.445 182.448 119.18 182.448 132.05V142.775C186.078 142.775 190.533 142.94 195.813 143.27L204.558 143.6C209.178 143.93 213.523 144.095 217.593 144.095C220.453 144.095 222.983 143.985 225.183 143.765C225.183 146.295 225.128 147.945 225.018 148.715V148.55C224.798 151.52 224.743 153.665 224.853 154.985L225.018 158.12Z" fill="black"/>
<path d="M309.471 79.9C309.811 83.4133 309.981 86.9833 309.981 90.61L309.811 93.67V96.73C309.584 100.47 309.471 105.967 309.471 113.22C309.471 121.267 309.301 127.387 308.961 131.58L308.451 137.19C307.884 146.37 305.561 154.19 301.481 160.65C299.781 163.03 297.231 165.127 293.831 166.94C290.431 168.753 286.691 170.227 282.611 171.36C278.418 172.607 273.488 173.23 267.821 173.23C265.214 173.23 263.401 173.173 262.381 173.06C256.828 172.607 251.841 171.417 247.421 169.49C243.114 167.45 239.941 164.503 237.901 160.65C235.181 155.55 233.708 149.147 233.481 141.44L233.141 136C233.028 135.093 232.971 133.223 232.971 130.39C232.404 121.097 232.121 112.2 232.121 103.7C232.121 98.4867 232.291 93.2733 232.631 88.06C232.971 82.3933 233.934 76.8967 235.521 71.57C237.221 66.13 239.771 61.37 243.171 57.29L246.911 55.25C254.164 51.7367 262.098 49.98 270.711 49.98C276.151 49.98 281.251 50.7167 286.011 52.19C290.884 53.55 295.134 55.59 298.761 58.31C302.728 61.9367 305.334 65.5067 306.581 69.02C307.941 72.6467 308.904 76.2733 309.471 79.9ZM283.121 98.43L282.441 89.59C282.214 86.4167 281.421 83.64 280.061 81.26C278.814 78.7667 277.171 77.01 275.131 75.99C274.224 75.65 273.318 75.48 272.411 75.48C269.691 75.48 267.028 76.3867 264.421 78.2C263.061 79.3333 261.701 80.9767 260.341 83.13C259.094 85.17 258.131 87.2667 257.451 89.42C256.318 94.4067 255.751 100.753 255.751 108.46C255.751 112.313 255.808 115.203 255.921 117.13V116.96C256.374 119.227 256.714 122.23 256.941 125.97L257.111 128.35C257.564 134.017 258.188 138.21 258.981 140.93V140.76C260.001 143.027 261.474 144.783 263.401 146.03C265.441 147.163 267.594 147.73 269.861 147.73C271.674 147.73 273.488 147.333 275.301 146.54C277.228 145.633 278.871 144.387 280.231 142.8C281.364 141.327 282.044 140.08 282.271 139.06C282.611 138.04 282.781 136.453 282.781 134.3C282.781 132.373 282.838 130.957 282.951 130.05L283.121 127.84L283.291 124.61V122.23L283.461 119V110.84L283.121 99.28V98.43Z" fill="black"/>
<path d="M380.299 113.03C381.319 118.017 382.679 123.57 384.379 129.69C386.079 135.81 387.779 141.703 389.479 147.37C392.085 155.757 394.409 163.917 396.449 171.85C393.729 171.623 391.745 171.51 390.499 171.51L379.959 171.68C375.085 171.68 371.175 171.227 368.229 170.32C367.322 168.28 366.359 165.617 365.339 162.33C364.432 159.043 363.412 155.02 362.279 150.26C361.599 147.993 360.522 143.913 359.049 138.02L358.029 141.42C356.555 146.633 354.685 152.697 352.419 159.61C350.265 166.523 348.905 170.433 348.339 171.34L342.049 171.51C340.575 171.623 338.422 171.68 335.589 171.68C329.809 171.68 324.765 171 320.459 169.64C322.839 162.5 326.352 151.393 330.999 136.32C335.759 121.133 338.139 113.03 338.139 112.01C334.172 93.5367 327.599 73.9867 318.419 53.36C325.445 52.7933 333.832 52.51 343.579 52.51H349.359C350.492 56.93 352.135 63.22 354.289 71.38C356.442 79.54 357.802 84.0733 358.369 84.98L360.919 76.31C362.505 70.3033 364.772 62.2 367.719 52C375.652 51.5467 385.965 51.32 398.659 51.32L380.299 113.03Z" fill="black"/>
<path d="M448.71 52.17C448.71 65.43 448.54 78.8033 448.2 92.29C447.747 110.197 447.52 124.307 447.52 134.62C447.52 146.52 447.86 158.363 448.54 170.15C446.84 171.85 442.42 172.7 435.28 172.7C431.2 172.7 428.197 172.643 426.27 172.53L424.23 172.36L421.17 172.19C418.903 172.19 416.013 172.643 412.5 173.55C413.18 163.69 413.52 153.207 413.52 142.1C413.52 137.68 413.407 131.163 413.18 122.55L413.01 112.69C412.557 100.677 412.33 90.93 412.33 83.45C412.33 72.23 412.84 61.18 413.86 50.3C415.333 50.0733 416.92 49.96 418.62 49.96C419.527 49.96 420.773 50.0733 422.36 50.3C423.947 50.4133 425.817 50.4133 427.97 50.3C433.863 50.64 438.567 50.7533 442.08 50.64H448.71V52.17Z" fill="black"/>
<path d="M544.677 154.87C544.677 160.65 544.054 165.807 542.807 170.34C537.82 170.34 530.454 170.453 520.707 170.68L498.437 170.85C488.35 170.85 478.264 170.51 468.177 169.83C468.29 166.203 468.12 152.093 467.667 127.5C467.327 113.56 467.157 102.85 467.157 95.37C467.157 79.8433 467.554 65.3933 468.347 52.02L483.307 51.51C500.08 50.83 512.887 50.49 521.727 50.49C529.32 50.49 536.687 50.7733 543.827 51.34C544.28 53.72 544.507 56.4967 544.507 59.67C544.507 61.37 544.394 64.1467 544.167 68C543.94 71.6267 543.827 74.46 543.827 76.5C537.027 77.9733 529.434 78.71 521.047 78.71L498.947 78.88C498.38 84.2067 498.097 88.6267 498.097 92.14C498.097 94.86 498.437 97.24 499.117 99.28L510.337 97.92C511.924 97.92 514.304 98.0333 517.477 98.26L519.687 98.43C520.254 101.83 520.537 105.513 520.537 109.48L520.197 123.08C516.57 124.1 511.697 124.61 505.577 124.61L501.157 124.44C500.364 124.44 499.854 124.553 499.627 124.78L498.947 133.62C498.947 138.267 499.174 142.12 499.627 145.18C505.52 145.18 511.244 145.35 516.797 145.69C518.724 145.803 521.104 145.917 523.937 146.03C526.77 146.143 530.114 146.2 533.967 146.2L544.337 145.86C544.564 151.073 544.677 154.077 544.677 154.87Z" fill="black"/>
</svg>
